<svg xmlns="http://www.w3.org/2000/svg" width="126px" height="116px" viewBox="0 0 126 116" version="1.1"><title>lung</title><desc>Created with Sketch.</desc><defs><linearGradient x1="50%" y1="0%" x2="50%" y2="100%" id="linearGradient-1"><stop stop-color="#854C5D" offset="0%"/><stop stop-color="#A37F8B" offset="100%"/></linearGradient><linearGradient x1="50%" y1="0%" x2="50%" y2="100%" id="linearGradient-2"><stop stop-color="#976475" offset="0%"/><stop stop-color="#AF8392" stop-opacity="0.451200181" offset="100%"/></linearGradient></defs><g id="Welcome" stroke="none" stroke-width="1" fill="none" fill-rule="evenodd"><g id="Desktop" transform="translate(-669.000000, -762.000000)"><g id="Bejing" transform="translate(655.000000, 722.000000)"><g id="lung" transform="translate(0.000000, 27.000000)"><path d="M68.1818182 54.0839161L68.1818182 43.0909091 76.9090909 43.0909091 76.9090909 43.0909091 85.6363636 43.0909091 85.6363636 54.5454545 84.0481283 54.5454545 84.8181818 56.7272727C84.8181818 56.7272727 84.2727273 60.2727273 82.6363636 60.2727273 81 60.2727273 78 58.9090909 76.6363636 57.2727273 75.2727273 58.6363636 69.2727273 60.8181818 69.2727273 60.8181818L67.6363636 54.5454545 68.1818182 54.0839161Z" id="middle" fill="#56263E"/><path d="M28.5412279 128.234984C28.5412279 128.234984 13.2685006 128.780438 14.6321369 112.416802 14.6321369 99.3258924 8.08668281 62.5077106 44.904865 24.871347 59.9048658 14.5077106 66.723046 18.5986197 68.6321369 24.871347 70.5412279 31.1440742 71.6321369 31.1440742 71.6321369 31.1440742L72.4503188 32.7804383 72.9957733 34.6895288C72.9957733 34.6895288 73.2685006 45.8713466 72.4503188 48.5986197 71.632137 51.3258928 69.9957733 52.6895284 73.8139551 60.3258924 74.4417404 62.7114766 73.8139551 68.669726 72.723046 73.4978094 73.8139551 76.9622564 74.2554658 83.7372114 73.8139551 84.3258924 72.9957733 85.4168019 72.723046 87.871347 72.723046 87.871347 72.723046 87.871347 72.723046 108.325892 72.1775915 109.689529 71.632137 111.053166 73.2685006 123.325892 59.6321369 124.962256 53.632137 126.053166 45.9957733 129.325892 32.3594097 128.234983 30.723046 128.234984 28.5412279 128.234984 28.5412279 128.234984Z" id="outer" fill="#CB819C"/><path d="M93.9957733 128.234984C93.9957733 128.234984 78.723046 128.780438 80.0866824 112.416802 80.0866824 99.3258924 73.5412283 62.5077106 110.35941 24.871347 125.359411 14.5077106 132.177591 18.5986197 134.086682 24.871347 135.995773 31.1440742 137.086682 31.1440742 137.086682 31.1440742L137.904864 32.7804383 138.450319 34.6895288C138.450319 34.6895288 138.723046 45.8713466 137.904864 48.5986197 137.086682 51.3258928 135.450319 52.6895284 139.268501 60.3258924 139.896286 62.7114766 139.268501 68.669726 138.177591 73.4978094 139.268501 76.9622564 139.710011 83.7372114 139.268501 84.3258924 138.450319 85.4168019 138.177591 87.871347 138.177591 87.871347 138.177591 87.871347 138.177591 108.325892 137.632137 109.689529 137.086682 111.053166 138.723046 123.325892 125.086682 124.962256 119.086682 126.053166 111.450319 129.325892 97.8139551 128.234983 96.1775915 128.234984 93.9957733 128.234984 93.9957733 128.234984Z" id="outer" fill="#CB819C" transform="translate(109.577208, 73.497810) scale(-1, 1) translate(-109.577208, -73.497810) "/><path d="M15 113.454544C15 100.363635 8.08668281 62.5077106 44.904865 24.871347 59.9048658 14.5077106 66.723046 18.5986197 68.6321369 24.871347 70.5412279 31.1440742 71.6321369 31.1440742 71.6321369 31.1440742L72.4503188 32.7804383 72.9957733 34.6895288C72.9957733 34.6895288 73.2685006 45.8713466 72.4503188 48.5986197 71.632137 51.3258928 69.9957733 52.6895284 73.8139551 60.3258924 74.4417404 62.7114766 73.8139551 68.669726 72.723046 73.4978094 73.8139551 76.9622564 74.2554658 83.7372114 73.8139551 84.3258924 72.9957733 85.4168019 72.723046 87.871347 72.723046 87.871347 72.723046 87.871347 70.363637 97.9090893 66.5454545 101.727271 62.7272721 105.545453 61.9090915 106.090907 54.8181824 107.181817 48.8181824 108.272726 42.0000006 111.545453 31.9090905 112.636362 23.9999996 112.636362 13.6363636 129.81818 15 113.454544Z" id="inner" fill="url(#linearGradient-1)"/><path d="M80.4545455 113.741665C80.4545454 100.650756 73.5412283 62.7948317 110.35941 25.158468 125.359411 14.7948317 132.177591 18.8857408 134.086682 25.158468 135.995773 31.4311953 137.086682 31.4311953 137.086682 31.4311953L137.904864 33.0675593 138.450319 34.9766498C138.450319 34.9766498 138.723046 46.1584677 137.904864 48.8857408 137.086682 51.6130139 135.450319 52.9766495 139.268501 60.6130135 139.896286 62.9985977 139.268501 68.9568471 138.177591 73.7849305 139.268501 77.2493775 139.710011 84.0243324 139.268501 84.6130135 138.450319 85.7039229 138.177591 88.158468 138.177591 88.158468 138.177591 88.158468 135.818182 98.1962103 132 102.014392 128.181818 105.832574 127.363637 106.378029 120.272728 107.468938 114.272728 108.559847 107.454546 111.832574 97.3636359 112.923483 89.454545 112.923483 79.0909091 130.105301 80.4545455 113.741665Z" id="inner" fill="url(#linearGradient-1)" transform="translate(109.728655, 69.818182) scale(-1, 1) translate(-109.728655, -69.818182) "/><rect id="Rectangle-3" fill="#56263E" x="72" y="15.2727273" width="9.81818182" height="39.2727273"/><ellipse id="Oval-4" fill="#AB738C" cx="76.9090909" cy="15.2727273" rx="4.90909091" ry="1.63636364"/><path d="M60.8181818 62.1818182C60.8181818 62.1818182 52.9090908 56.1818181 55.3636364 48.8181818 59.4545454 42.2727273 62.4545464 39.5454545 69 41.1818182 66.5454547 38.4545455 65.4545455 38.7272727 65.4545455 38.7272727 65.4545455 38.7272727 66.5454544 35.9999998 66 33 64.3636365 36.8181818 63.0000001 39 61.0909091 39.5454545 59.1818181 40.0909091 54.2727273 45.5454545 54 46.9090909 53.7272727 48.2727273 53.4545455 47.7272727 53.4545455 47.7272727 53.4545455 47.7272727 47.1818182 42.2727273 48 32.7272727 45.5454546 35.7272727 46.3636364 36.8181818 46.3636364 36.8181818 46.3636363 36.8181818 41.7272728 36.2727273 40.9090909 37.0909091 42.8181818 38.1818182 46.3636364 37.3636364 47.4545455 41.1818182 48.5454545 45 49.6363636 45.2727273 49.0909091 47.1818182 45.5454545 46.9090909 43.0909091 45.2727273 37.0909091 51 35.7272727 52.9090909 30.2727273 58.0909091 27.8181818 58.0909091 25.3636364 58.0909091 30.8181818 58.6363636 30.8181818 58.6363636 30.8181818 58.6363636 28.6363636 60.2727273 25.9090909 60 31.6363636 61.6363636 34.3636364 58.3636364 34.9090909 57.2727273 35.4545455 56.1818182 38.4545455 51.8181818 41.7272727 50.1818182 43.9090909 48.2727273 49.0909091 48 51 52.6363636 50.7272727 55.9090909 53.1818182 60.8181818 54.2727273 63 55.3636364 65.1818182 55.6363636 64.6363636 55.6363636 64.6363636 55.6363636 64.6363636 34.0909091 63 28.9090909 81 28.6363636 83.1818182 23.4545455 84.8181818 23.4545455 84.8181818 23.4545455 84.8181818 27.8181818 84.8181818 29.4545455 83.7272727 31.0909091 82.6363636 26.1818182 88.9090909 25.3636364 88.6363636 24.5454545 88.3636364 31.9090909 86.4545455 33.5454545 83.7272727 34.6363636 86.1818182 37.3636364 86.7272727 37.9090909 86.4545455 36 83.4545455 34.0909091 80.1818182 34.9090909 78.5454545 35.7272727 76.9090909 38.4545455 68.1818182 56.1818182 67.6363636 57.2727273 70.9090909 57 72.5454545 57 72.5454545 57 72.5454545 57.8181818 92.4545455 55.9090909 100.909091 59.7272727 97.0909091 59.1818182 95.7272727 59.1818182 95.7272727 59.1818182 95.7272727 60.8181818 99 64.6363636 100.636364 66.2727273 99.5454545 66 99.8181818 66 99.8181818 66 99.8181818 60.2727273 95.1818182 60.8181818 89.1818182 61.3636364 83.1818182 61.9090909 69.2727273 61.9090909 69.2727273 61.9090909 69.2727273 66.8181818 65.4545455 69.5454545 62.4545455L69.5454545 55.9090909C69.5454545 55.9090909 62.4545455 62.4545455 61.6363636 62.4545455 60.8181818 62.4545455 60.8181818 62.1818182 60.8181818 62.1818182Z" id="roots" fill="url(#linearGradient-2)"/><path d="M121.909091 62.1818182C121.909091 62.1818182 114 56.1818181 116.454545 48.8181818 120.545454 42.2727273 123.545455 39.5454545 130.090909 41.1818182 127.636364 38.4545455 126.545455 38.7272727 126.545455 38.7272727 126.545455 38.7272727 127.636363 35.9999998 127.090909 33 125.454546 36.8181818 124.090909 39 122.181818 39.5454545 120.272727 40.0909091 115.363636 45.5454545 115.090909 46.9090909 114.818182 48.2727273 114.545455 47.7272727 114.545455 47.7272727 114.545455 47.7272727 108.272727 42.2727273 109.090909 32.7272727 106.636364 35.7272727 107.454545 36.8181818 107.454545 36.8181818 107.454545 36.8181818 102.818182 36.2727273 102 37.0909091 103.909091 38.1818182 107.454545 37.3636364 108.545455 41.1818182 109.636364 45 110.727273 45.2727273 110.181818 47.1818182 106.636364 46.9090909 104.181818 45.2727273 98.1818182 51 96.8181818 52.9090909 91.3636364 58.0909091 88.9090909 58.0909091 86.4545455 58.0909091 91.9090909 58.6363636 91.9090909 58.6363636 91.9090909 58.6363636 89.7272727 60.2727273 87 60 92.7272727 61.6363636 95.4545455 58.3636364 96 57.2727273 96.5454545 56.1818182 99.5454545 51.8181818 102.818182 50.1818182 105 48.2727273 110.181818 48 112.090909 52.6363636 111.818182 55.9090909 114.272727 60.8181818 115.363636 63 116.454545 65.1818182 116.727273 64.6363636 116.727273 64.6363636 116.727273 64.6363636 95.1818182 63 90 81 89.7272727 83.1818182 84.5454545 84.8181818 84.5454545 84.8181818 84.5454545 84.8181818 88.9090909 84.8181818 90.5454545 83.7272727 92.1818182 82.6363636 87.2727273 88.9090909 86.4545455 88.6363636 85.6363636 88.3636364 93 86.4545455 94.6363636 83.7272727 95.7272727 86.1818182 98.4545455 86.7272727 99 86.4545455 97.0909091 83.4545455 95.1818182 80.1818182 96 78.5454545 96.8181818 76.9090909 101.454545 67.9090909 119.181818 67.3636364L118.090909 72.5454545C118.090909 72.5454545 116.454545 79.0909091 117.272727 84.8181818 118.090909 90.5454545 117.343643 96.3665073 116.727273 99.8181818 115.090909 110.454545 104.454545 115.909091 107.454545 114.818182 115.909091 111.272727 117.224082 105.191621 117.272727 106.090909 117.430158 109.001264 116.727273 104.181818 119.181818 111.272727 120.680691 107.612014 120.272727 95.7272727 120.272727 95.7272727 120.272727 95.7272727 121.909091 99 125.727273 100.636364 127.363636 99.5454545 127.090909 99.8181818 127.090909 99.8181818 127.090909 99.8181818 122.728101 93.5839987 121.909091 89.1818182 119.727273 77.4545455 123 69.2727273 123 69.2727273 123 69.2727273 127.909091 65.4545455 130.636364 62.4545455L130.636364 55.9090909C130.636364 55.9090909 123.545455 62.4545455 122.727273 62.4545455 121.909091 62.4545455 121.909091 62.1818182 121.909091 62.1818182Z" id="roots" fill="url(#linearGradient-2)" transform="translate(107.590909, 73.841309) scale(-1, 1) translate(-107.590909, -73.841309) "/><g id="face" transform="translate(27.272727, 55.090909)"><ellipse id="Oval-1" fill="#3D1C0D" cx="5.18181818" cy="12.2727273" rx="3" ry="4.09090909"/><ellipse id="Oval-1-Copy" fill="#3D1C0D" cx="34.0909091" cy="12.2727273" rx="3" ry="4.09090909"/><path d="M12.542781 28.6363636C12.542781 28.6363636 19.9090903 21.8181821 26.181818 28.6363637" id="Path-3" stroke="#DD819A" stroke-width="5" stroke-linecap="round"/><path d="M0 4.36363636C0 4.36363636 7.09090909 4.90909091 7.90909091 0.272727273" id="Path-5" stroke="#3D1C0D" stroke-width="3" stroke-linecap="round"/><g id="tear" transform="translate(31.090909, 20.181818)" fill="#85D2EE"><ellipse id="Oval-3" cx="3" cy="6.27272727" rx="3" ry="3"/><polygon id="Triangle-1" points="3 0 6.81818204 6.54545455 3.00000013 9.27272727 -0.81818186 6.54545455 "/></g></g></g></g></g></g></svg>