<svg xmlns="http://www.w3.org/2000/svg" xmlns:xlink="http://www.w3.org/1999/xlink" width="126" height="116" viewBox="0 0 126 116" version="1.1"><title>lung copy</title><desc>Created with Sketch.</desc><defs><linearGradient x1="50" y1="0" x2="50" y2="100"><stop stop-color="#EA8FAA" offset="0"/><stop stop-color="#CF819B" offset="100"/></linearGradient></defs><g stroke="none" stroke-width="1" fill="none" fill-rule="evenodd"><g transform="translate(-234.000000, -762.000000)"><g transform="translate(220.000000, 722.000000)"><g transform="translate(0.000000, 27.000000)"><path d="M68.2 54.1L68.2 43.1 76.9 43.1 76.9 43.1 85.6 43.1 85.6 54.5 84 54.5 84.8 56.7C84.8 56.7 84.3 60.3 82.6 60.3 81 60.3 78 58.9 76.6 57.3 75.3 58.6 69.3 60.8 69.3 60.8L67.6 54.5 68.2 54.1Z" fill="#B95386"/><path d="M28.5 128.2C28.5 128.2 13.3 128.8 14.6 112.4 14.6 99.3 8.1 62.5 44.9 24.9 59.9 14.5 66.7 18.6 68.6 24.9 70.5 31.1 71.6 31.1 71.6 31.1L72.5 32.8 73 34.7C73 34.7 73.3 45.9 72.5 48.6 71.6 51.3 70 52.7 73.8 60.3 74.4 62.7 73.8 68.7 72.7 73.5 73.8 77 74.3 83.7 73.8 84.3 73 85.4 72.7 87.9 72.7 87.9 72.7 87.9 72.7 108.3 72.2 109.7 71.6 111.1 73.3 123.3 59.6 125 53.6 126.1 46 129.3 32.4 128.2 30.7 128.2 28.5 128.2 28.5 128.2Z" fill="#D4849E"/><path d="M94 128.2C94 128.2 78.7 128.8 80.1 112.4 80.1 99.3 73.5 62.5 110.4 24.9 125.4 14.5 132.2 18.6 134.1 24.9 136 31.1 137.1 31.1 137.1 31.1L137.9 32.8 138.5 34.7C138.5 34.7 138.7 45.9 137.9 48.6 137.1 51.3 135.5 52.7 139.3 60.3 139.9 62.7 139.3 68.7 138.2 73.5 139.3 77 139.7 83.7 139.3 84.3 138.5 85.4 138.2 87.9 138.2 87.9 138.2 87.9 138.2 108.3 137.6 109.7 137.1 111.1 138.7 123.3 125.1 125 119.1 126.1 111.5 129.3 97.8 128.2 96.2 128.2 94 128.2 94 128.2Z" fill="#D4849E" transform="translate(109.577208, 73.497810) scale(-1, 1) translate(-109.577208, -73.497810) "/><path d="M15 113.5C15 100.4 8.1 62.5 44.9 24.9 59.9 14.5 66.7 18.6 68.6 24.9 70.5 31.1 71.6 31.1 71.6 31.1L72.5 32.8 73 34.7C73 34.7 73.3 45.9 72.5 48.6 71.6 51.3 70 52.7 73.8 60.3 74.4 62.7 73.8 68.7 72.7 73.5 73.8 77 74.3 83.7 73.8 84.3 73 85.4 72.7 87.9 72.7 87.9 72.7 87.9 70.4 97.9 66.5 101.7 62.7 105.5 61.9 106.1 54.8 107.2 48.8 108.3 42 111.5 31.9 112.6 24 112.6 13.6 129.8 15 113.5Z" fill="url(#linearGradient-1)"/><path d="M80.5 113.7C80.5 100.7 73.5 62.8 110.4 25.2 125.4 14.8 132.2 18.9 134.1 25.2 136 31.4 137.1 31.4 137.1 31.4L137.9 33.1 138.5 35C138.5 35 138.7 46.2 137.9 48.9 137.1 51.6 135.5 53 139.3 60.6 139.9 63 139.3 69 138.2 73.8 139.3 77.2 139.7 84 139.3 84.6 138.5 85.7 138.2 88.2 138.2 88.2 138.2 88.2 135.8 98.2 132 102 128.2 105.8 127.4 106.4 120.3 107.5 114.3 108.6 107.5 111.8 97.4 112.9 89.5 112.9 79.1 130.1 80.5 113.7Z" fill="url(#linearGradient-1)" transform="translate(109.728655, 69.818182) scale(-1, 1) translate(-109.728655, -69.818182) "/><rect fill="#B95386" x="72" y="15.3" width="9.8" height="39.3"/><ellipse fill="#AB738C" cx="76.9" cy="15.3" rx="4.9" ry="1.6"/><path d="M60.8 62.2C60.8 62.2 52.9 56.2 55.4 48.8 59.5 42.3 62.5 39.5 69 41.2 66.5 38.5 65.5 38.7 65.5 38.7 65.5 38.7 66.5 36 66 33 64.4 36.8 63 39 61.1 39.5 59.2 40.1 54.3 45.5 54 46.9 53.7 48.3 53.5 47.7 53.5 47.7 53.5 47.7 47.2 42.3 48 32.7 45.5 35.7 46.4 36.8 46.4 36.8 46.4 36.8 41.7 36.3 40.9 37.1 42.8 38.2 46.4 37.4 47.5 41.2 48.5 45 49.6 45.3 49.1 47.2 45.5 46.9 43.1 45.3 37.1 51 35.7 52.9 30.3 58.1 27.8 58.1 25.4 58.1 30.8 58.6 30.8 58.6 30.8 58.6 28.6 60.3 25.9 60 31.6 61.6 34.4 58.4 34.9 57.3 35.5 56.2 38.5 51.8 41.7 50.2 43.9 48.3 49.1 48 51 52.6 50.7 55.9 53.2 60.8 54.3 63 55.4 65.2 55.6 64.6 55.6 64.6 55.6 64.6 34.1 63 28.9 81 28.6 83.2 23.5 84.8 23.5 84.8 23.5 84.8 27.8 84.8 29.5 83.7 31.1 82.6 26.2 88.9 25.4 88.6 24.5 88.4 31.9 86.5 33.5 83.7 34.6 86.2 37.4 86.7 37.9 86.5 36 83.5 34.1 80.2 34.9 78.5 35.7 76.9 38.5 68.2 56.2 67.6 57.3 70.9 57 72.5 57 72.5 57 72.5 57.8 92.5 55.9 100.9 59.7 97.1 59.2 95.7 59.2 95.7 59.2 95.7 60.8 99 64.6 100.6 66.3 99.5 66 99.8 66 99.8 66 99.8 60.3 95.2 60.8 89.2 61.4 83.2 61.9 69.3 61.9 69.3 61.9 69.3 66.8 65.5 69.5 62.5L69.5 55.9C69.5 55.9 62.5 62.5 61.6 62.5 60.8 62.5 60.8 62.2 60.8 62.2Z" fill-opacity="0.1" fill="#FFFFFF"/><path d="M121.9 62.2C121.9 62.2 114 56.2 116.5 48.8 120.5 42.3 123.5 39.5 130.1 41.2 127.6 38.5 126.5 38.7 126.5 38.7 126.5 38.7 127.6 36 127.1 33 125.5 36.8 124.1 39 122.2 39.5 120.3 40.1 115.4 45.5 115.1 46.9 114.8 48.3 114.5 47.7 114.5 47.7 114.5 47.7 108.3 42.3 109.1 32.7 106.6 35.7 107.5 36.8 107.5 36.8 107.5 36.8 102.8 36.3 102 37.1 103.9 38.2 107.5 37.4 108.5 41.2 109.6 45 110.7 45.3 110.2 47.2 106.6 46.9 104.2 45.3 98.2 51 96.8 52.9 91.4 58.1 88.9 58.1 86.5 58.1 91.9 58.6 91.9 58.6 91.9 58.6 89.7 60.3 87 60 92.7 61.6 95.5 58.4 96 57.3 96.5 56.2 99.5 51.8 102.8 50.2 105 48.3 110.2 48 112.1 52.6 111.8 55.9 114.3 60.8 115.4 63 116.5 65.2 116.7 64.6 116.7 64.6 116.7 64.6 95.2 63 90 81 89.7 83.2 84.5 84.8 84.5 84.8 84.5 84.8 88.9 84.8 90.5 83.7 92.2 82.6 87.3 88.9 86.5 88.6 85.6 88.4 93 86.5 94.6 83.7 95.7 86.2 98.5 86.7 99 86.5 97.1 83.5 95.2 80.2 96 78.5 96.8 76.9 101.5 67.9 119.2 67.4L118.1 72.5C118.1 72.5 116.5 79.1 117.3 84.8 118.1 90.5 117.3 96.4 116.7 99.8 115.1 110.5 104.5 115.9 107.5 114.8 115.9 111.3 117.2 105.2 117.3 106.1 117.4 109 116.7 104.2 119.2 111.3 120.7 107.6 120.3 95.7 120.3 95.7 120.3 95.7 121.9 99 125.7 100.6 127.4 99.5 127.1 99.8 127.1 99.8 127.1 99.8 122.7 93.6 121.9 89.2 119.7 77.5 123 69.3 123 69.3 123 69.3 127.9 65.5 130.6 62.5L130.6 55.9C130.6 55.9 123.5 62.5 122.7 62.5 121.9 62.5 121.9 62.2 121.9 62.2Z" fill-opacity="0.1" fill="#FFFFFF" transform="translate(107.590909, 73.841309) scale(-1, 1) translate(-107.590909, -73.841309) "/><g transform="translate(29.272727, 63.090909)"><ellipse fill="#3D1C0D" cx="3.2" cy="4.3" rx="3" ry="4.1"/><ellipse fill="#3D1C0D" cx="32.1" cy="4.3" rx="3" ry="4.1"/><path d="M10.5 20.6C10.5 20.6 17.9 13.8 24.2 20.6" stroke-opacity="0.7" stroke="#FFFFFF" stroke-width="5" stroke-linecap="round" transform="translate(17.362299, 19.121212) scale(1, -1) translate(-17.362299, -19.121212) "/></g></g></g></g></g></svg>